<svg xmlns="http://www.w3.org/2000/svg" width="782.038" height="626.413" viewBox="0 0 782.038 626.413">
  <g id="Group_48" data-name="Group 48" transform="translate(-1110.229 -349.587)">
    <path id="Shape" d="M156.408,156.408A156.409,156.409,0,0,1,0,0H156.408Z" transform="translate(1579.452 506.534)" fill="#2d3652"/>
    <path id="Shape-2" data-name="Shape" d="M312.815,0H156.408A156.409,156.409,0,0,0,0,156.408H156.408A156.409,156.409,0,0,0,312.815,0Z" transform="translate(1266.637 506.534)" fill="#f0f1f1"/>
    <path id="Shape-3" data-name="Shape" d="M0,0H156.408A156.409,156.409,0,0,1,312.815,156.408H156.408A156.409,156.409,0,0,1,0,0Z" transform="translate(1266.637 662.942)" fill="#2d3652"/>
    <path id="Shape-4" data-name="Shape" d="M0,0H77.808c43.409,0,78.6,35.013,78.6,78.2H78.6C35.189,78.2,0,43.19,0,0Z" transform="translate(1423.045 741.146)" fill="#6ed47c"/>
    <path id="Shape-5" data-name="Shape" d="M0,312.815V156.408A156.409,156.409,0,0,1,156.408,0h0V156.408A156.409,156.409,0,0,1,0,312.815Z" transform="translate(1579.452 662.942)" fill="#6ed47c"/>
    <path id="Shape-6" data-name="Shape" d="M0,46.922A46.921,46.921,0,0,1,46.922,0h0A46.921,46.921,0,0,1,93.845,46.922h0A46.921,46.921,0,0,1,46.922,93.845h0A46.921,46.921,0,0,1,0,46.922Z" transform="translate(1533.069 615.48)" fill="#ff743c"/>
    <path id="Shape-7" data-name="Shape" d="M0,23.461A23.462,23.462,0,0,1,23.461,0h0A23.462,23.462,0,0,1,46.922,23.461h0A23.462,23.462,0,0,1,23.461,46.922h0A23.462,23.462,0,0,1,0,23.461Z" transform="translate(1556.8 639.211)" fill="#ffc700"/>
    <path id="Shape-8" data-name="Shape" d="M156.408,78.2A78.2,78.2,0,0,0,78.2,0h0A78.2,78.2,0,0,0,0,78.2H0a78.2,78.2,0,0,0,78.2,78.2h78.2Z" transform="translate(1579.452 349.587)" fill="#ff743c"/>
    <path id="Shape-9" data-name="Shape" d="M0,78.2A78.2,78.2,0,0,1,78.2,0h0a78.2,78.2,0,0,1,78.2,78.2h0a78.2,78.2,0,0,1-78.2,78.2h0A78.2,78.2,0,0,1,0,78.2Z" transform="translate(1423.045 819.35)" fill="#ff743c"/>
    <path id="Shape-10" data-name="Shape" d="M0,155.868V78.327A78.266,78.266,0,0,1,78.2,0h0V77.541A78.266,78.266,0,0,1,0,155.868Z" transform="translate(1657.656 662.942)" fill="#2d3652"/>
    <path id="Shape-11" data-name="Shape" d="M80.9,40.449A40.45,40.45,0,0,0,40.449,0h0A40.45,40.45,0,0,0,0,40.449H0A40.45,40.45,0,0,0,40.449,80.9H80.9Z" transform="translate(1654.959 425.094)" fill="#ffc700"/>
    <path id="Shape-12" data-name="Shape" d="M156.408,156.408h0A156.409,156.409,0,0,1,0,0H156.408Z" transform="translate(1735.32 505.995)" fill="#f0f1f1"/>
    <path id="Shape-13" data-name="Shape" d="M156.408,78.2A78.2,78.2,0,0,0,78.2,0h0A78.2,78.2,0,0,0,0,78.2H0a78.2,78.2,0,0,0,78.2,78.2h78.2Z" transform="translate(1892.267 976) rotate(180)" fill="#ffc700"/>
    <path id="Shape-14" data-name="Shape" d="M80.9,40.449A40.45,40.45,0,0,0,40.449,0h0A40.45,40.45,0,0,0,0,40.449H0A40.45,40.45,0,0,0,40.449,80.9H80.9Z" transform="translate(1816.76 900.493) rotate(180)" fill="#ffc700"/>
    <path id="Shape-15" data-name="Shape" d="M0,78.2A78.2,78.2,0,0,1,78.2,0h0a78.2,78.2,0,0,1,78.2,78.2h0a78.2,78.2,0,0,1-78.2,78.2h0A78.2,78.2,0,0,1,0,78.2Z" transform="translate(1891.728 662.403) rotate(90)" fill="#ff743c"/>
    <path id="Shape-16" data-name="Shape" d="M0,78.2A78.2,78.2,0,0,1,78.2,0h0a78.2,78.2,0,0,1,78.2,78.2h0a78.2,78.2,0,0,1-78.2,78.2h0A78.2,78.2,0,0,1,0,78.2Z" transform="translate(1568.728 441.403) rotate(90)" fill="#ff743c"/>
    <path id="Shape-17" data-name="Shape" d="M0,43.417A43.417,43.417,0,0,1,43.417,0h0A43.417,43.417,0,0,1,86.833,43.417h0A43.417,43.417,0,0,1,43.417,86.833h0A43.417,43.417,0,0,1,0,43.417Z" transform="translate(1857.75 697.459) rotate(90)" fill="#2d3652"/>
    <path id="Shape-18" data-name="Shape" d="M0,43.417A43.417,43.417,0,0,1,43.417,0h0A43.417,43.417,0,0,1,86.833,43.417h0A43.417,43.417,0,0,1,43.417,86.833h0A43.417,43.417,0,0,1,0,43.417Z" transform="translate(1534.75 476.459) rotate(90)" fill="#2d3652"/>
    <path id="Shape-19" data-name="Shape" d="M156.408,156.408h0A156.408,156.408,0,0,1,0,0H156.408Z" transform="translate(1194.77 817.288)" fill="#6ed47c"/>
    <path id="Shape-20" data-name="Shape" d="M0,78.2H78.2A78.2,78.2,0,0,0,156.408,0H78.2A78.2,78.2,0,0,0,0,78.2Z" transform="translate(1110.229 349.587)" fill="#2d3652"/>
    <path id="Shape-21" data-name="Shape" d="M155.868,78.2A77.935,77.935,0,1,1,77.934,0h77.934Z" transform="translate(1110.769 506.534)" fill="#d5e155"/>
    <path id="Shape-22" data-name="Shape" d="M79.822,79.822h0A79.821,79.821,0,0,1,0,0H79.822Z" transform="translate(1271.356 817.288)" fill="#d5e155"/>
    <path id="Shape-23" data-name="Shape" d="M0,23.461A23.462,23.462,0,0,1,23.461,0h0A23.462,23.462,0,0,1,46.922,23.461h0A23.462,23.462,0,0,1,23.461,46.922h0A23.462,23.462,0,0,1,0,23.461Z" transform="translate(1203.534 441.274)" fill="#ff743c"/>
    <path id="Shape-24" data-name="Shape" d="M155.868,0H78.328A78.267,78.267,0,0,0,0,78.2H77.54A78.266,78.266,0,0,0,155.868,0Z" transform="translate(1266.637 584.738)" fill="#2d3652"/>
    <path id="Shape-25" data-name="Shape" d="M0,21.034A21.034,21.034,0,1,1,21.034,42.068,21.034,21.034,0,0,1,0,21.034Z" transform="translate(1245.603 758.405)" fill="#ff743c"/>
    <path id="Shape-26" data-name="Shape" d="M0,78.2A78.2,78.2,0,0,1,78.2,0h0a78.2,78.2,0,0,1,78.2,78.2h0a78.2,78.2,0,0,1-78.2,78.2H0Z" transform="translate(1266.637 349.587)" fill="#ff743c"/>
    <path id="Shape-27" data-name="Shape" d="M0,40.449A40.45,40.45,0,0,1,40.451,0h0A40.45,40.45,0,0,1,80.9,40.449h0A40.45,40.45,0,0,1,40.451,80.9H0Z" transform="translate(1266.637 425.634)" fill="#ffc700"/>
    <path id="Shape-28" data-name="Shape" d="M0,43.417A43.417,43.417,0,0,1,43.417,0h0A43.417,43.417,0,0,1,86.833,43.417h0A43.417,43.417,0,0,1,43.417,86.833h0A43.417,43.417,0,0,1,0,43.417Z" transform="translate(1458.102 853.328)" fill="#2d3652"/>
  </g>
</svg>
