<svg xmlns="http://www.w3.org/2000/svg" width="396" height="553" viewBox="0 0 396 553">
  <g id="Group_51" data-name="Group 51" transform="translate(-762 -3213)">
    <rect id="Rectangle_80" data-name="Rectangle 80" width="396" height="553" rx="91" transform="translate(762 3213)" fill="#fff"/>
    <rect id="Rectangle_84" data-name="Rectangle 84" width="324" height="224" rx="55" transform="translate(798 3255)" fill="rgba(255,199,177,0.61)"/>
    <text id="Quel_que_soit_votre_niveau_académique" data-name="Quel que 
soit votre 
niveau 
académique" transform="translate(960 3535)" fill="#010101" font-size="43" font-family="QuicksandBold-Regular, Quicksand"><tspan x="-107.091" y="0">Quel Que </tspan><tspan x="-111.521" y="50">Soit Votre </tspan><tspan x="-80.518" y="100">Niveau </tspan><tspan x="-133.171" y="150">Académique</tspan></text>
    <g id="Outline" transform="translate(873 3279.527)">
      <path id="Path_48" data-name="Path 48" d="M136.265,118.816a8.8,8.8,0,0,1,5.022,7.9v5.827h5.827v-5.827a14.681,14.681,0,0,0-7.954-12.974,26.074,26.074,0,0,0,2.126-10.335V48.05A32.087,32.087,0,0,0,109.237,16H103.41a31.779,31.779,0,0,0-19.23,6.41l3.5,4.659a25.99,25.99,0,0,1,9.549-4.511L86.823,37.124l-9.059,5.434a26.132,26.132,0,0,1,6.394-12.314l-4.277-3.958a31.937,31.937,0,0,0-8.5,20.928l-.02,59.109a20.462,20.462,0,0,0,.905,6.016A14.542,14.542,0,0,0,60.5,123.186l-.883,3.533H34.939A7.293,7.293,0,0,0,27.655,134v7.284h5.827V134a1.457,1.457,0,0,1,1.457-1.457H65.532v32.2a7.3,7.3,0,0,0-5.827,7.138v11.655a7.3,7.3,0,0,0,.146,1.457H42.077a7.3,7.3,0,0,0,.146-1.457V171.881a7.293,7.293,0,0,0-7.284-7.284H33.482V147.115H27.655V164.6h-4.37A7.293,7.293,0,0,0,16,171.881v11.655a7.293,7.293,0,0,0,7.284,7.284H126.719v-5.827H103.41v-8.741H97.583v8.741H91.755V170.424h29.137a5.834,5.834,0,0,0,5.827-5.827V126.891a26.4,26.4,0,0,0,9.546-8.076ZM36.4,183.536a1.457,1.457,0,0,1-1.457,1.457H23.284a1.457,1.457,0,0,1-1.457-1.457V171.881a1.457,1.457,0,0,1,1.457-1.457H34.939a1.457,1.457,0,0,1,1.457,1.457ZM97.211,32.6l14.94,8.408v7.912L93.109,38.347ZM77.187,49.7,88.9,42.673l23.253,12.918v1.2a5.827,5.827,0,0,0,0,11.655V97.582H103.41A26.253,26.253,0,0,1,77.187,71.359Zm34.964,66.049v7.175l-1.392,2.09a10.371,10.371,0,0,1-19-5.754v-1.785a8.755,8.755,0,0,0,5.827-8.238v-6.36a32.111,32.111,0,0,0,5.827.532h5.827v5.827A8.771,8.771,0,0,0,112.151,115.749ZM77.187,89.766a32.337,32.337,0,0,0,5.827,6.3v10.259h5.827V99.9a31.948,31.948,0,0,0,2.914,1.311v8.023a2.917,2.917,0,0,1-2.914,2.914H78.405a14.579,14.579,0,0,1-1.218-5.827ZM66.151,124.6a8.726,8.726,0,0,1,8.479-6.621h5.853l-5.827,8.741H65.624Zm11.036,7.947V164.6H71.36v-32.05Zm8.741,52.446H66.989a1.457,1.457,0,0,1-1.457-1.457V171.881a1.457,1.457,0,0,1,1.457-1.457H80.1a2.914,2.914,0,0,0,2.914-2.914V165.8l2.914,2.914Zm34.964-20.4H90.049l-7.034-7.034v-27.93a2.914,2.914,0,0,0-1.573-2.586l4.518-6.774a16.194,16.194,0,0,0,28.638,9.321,2.912,2.912,0,0,0,.468.039,26.2,26.2,0,0,0,5.827-.661Zm2.914-122.374v79.608a20.232,20.232,0,0,1-5.827,1.767V27.654h-5.827v6.671l-11.533-6.489,4.291-6.009h4.328A26.252,26.252,0,0,1,135.46,48.05v55.36a20.323,20.323,0,0,1-5.827,14.254V42.223ZM88.842,68.446a5.827,5.827,0,1,1,5.827-5.827A5.827,5.827,0,0,1,88.842,68.446Zm5.139,8.741a24.816,24.816,0,0,0,11.04-2.606l2.606,5.212a30.671,30.671,0,0,1-13.646,3.221H91.755V77.187Zm19.7,60.55,3.232,4.848a26.971,26.971,0,0,1-27.826,1.263l2.78-5.122a21.144,21.144,0,0,0,21.816-.99Zm70.693,24.256a8.708,8.708,0,0,0-.51-7.511,8.737,8.737,0,0,0-4.7-16.108H138.374a2.914,2.914,0,0,0-2.06,4.974,5.337,5.337,0,0,1,.692,6.681H135.46A2.914,2.914,0,0,0,133.4,155a5.334,5.334,0,0,1,0,7.535,2.914,2.914,0,0,0,2.06,4.974h4.459a5.342,5.342,0,0,1,0,5.827H135.46a2.914,2.914,0,0,0-2.06,4.974,5.334,5.334,0,0,1,0,7.535,2.914,2.914,0,0,0,2.06,4.974h40.791a8.736,8.736,0,0,0,8.122-11.963,8.741,8.741,0,0,0,0-16.866ZM143.312,144.2h35.853a2.914,2.914,0,0,1,0,5.827H143.312a11.237,11.237,0,0,0,0-5.827ZM140.4,161.683a11.237,11.237,0,0,0,0-5.827h35.853a2.914,2.914,0,0,1,0,5.827Zm35.853,23.309H140.4a11.237,11.237,0,0,0,0-5.827h35.853a2.914,2.914,0,0,1,0,5.827Zm5.827-11.655H146.226a11.237,11.237,0,0,0,0-5.827h35.853a2.914,2.914,0,1,1,0,5.827Z" transform="translate(-16 -16)" fill="#ff743c"/>
    </g>
  </g>
</svg>
