<svg xmlns="http://www.w3.org/2000/svg" width="396" height="553" viewBox="0 0 396 553">
  <g id="Group_52" data-name="Group 52" transform="translate(-1277 -3208)">
    <rect id="Rectangle_79" data-name="Rectangle 79" width="396" height="553" rx="91" transform="translate(1277 3208)" fill="#fff"/>
    <rect id="Rectangle_83" data-name="Rectangle 83" width="324" height="224" rx="55" transform="translate(1313 3247)" fill="rgba(255,199,177,0.61)"/>
    <text id="Apprenez_tout_Temps" data-name="Apprenez tout
Temps" transform="translate(1475 3562)" fill="#010101" font-size="43" font-family="QuicksandBold-Regular, Quicksand"><tspan x="-153.94" y="0">Apprenez Tout</tspan><tspan x="-69.338" y="50">Temps</tspan></text>
    <g id="Calendar" transform="translate(1408 3292)">
      <path id="Path_70" data-name="Path 70" d="M120.608,14.939H109.825V10.626a8.626,8.626,0,1,0-17.252,0v4.313H75.321V10.626a8.626,8.626,0,1,0-17.252,0v4.313H40.817V10.626a8.626,8.626,0,1,0-17.252,0v4.313H12.783A10.783,10.783,0,0,0,2,25.722v86.26a10.783,10.783,0,0,0,10.783,10.783H73.165a2.157,2.157,0,1,0,0-4.313H12.783a6.489,6.489,0,0,1-6.47-6.47V45.13H127.077V81.791a2.157,2.157,0,1,0,4.313,0V25.722a10.783,10.783,0,0,0-10.783-10.783ZM96.886,10.626a4.313,4.313,0,1,1,8.626,0V23.565a4.313,4.313,0,1,1-8.626,0Zm-34.5,0a4.313,4.313,0,1,1,8.626,0V23.565a4.313,4.313,0,1,1-8.626,0Zm-34.5,0a4.313,4.313,0,1,1,8.626,0V23.565a4.313,4.313,0,1,1-8.626,0Zm99.2,30.191H6.313v-15.1a6.489,6.489,0,0,1,6.47-6.47H23.565v4.313a8.626,8.626,0,1,0,17.252,0V19.252H58.069v4.313a8.626,8.626,0,1,0,17.252,0V19.252H92.573v4.313a8.626,8.626,0,1,0,17.252,0V19.252h10.783a6.489,6.489,0,0,1,6.469,6.47Z" transform="translate(0)" fill="#ff743c"/>
      <path id="Path_71" data-name="Path 71" d="M39.252,31.313A4.313,4.313,0,0,0,34.939,27H26.313A4.313,4.313,0,0,0,22,31.313v6.47A4.313,4.313,0,0,0,26.313,42.1h8.626a4.313,4.313,0,0,0,4.313-4.313Zm-12.939,6.47v-6.47h8.626v6.47Z" transform="translate(23.13 28.913)" fill="#ff743c"/>
      <path id="Path_72" data-name="Path 72" d="M27.252,31.313A4.313,4.313,0,0,0,22.939,27H14.313A4.313,4.313,0,0,0,10,31.313v6.47A4.313,4.313,0,0,0,14.313,42.1h8.626a4.313,4.313,0,0,0,4.313-4.313Zm-12.939,6.47v-6.47h8.626v6.47Z" transform="translate(9.252 28.913)" fill="#ff743c"/>
      <path id="Path_73" data-name="Path 73" d="M58.939,42.1a4.313,4.313,0,0,0,4.313-4.313v-6.47A4.313,4.313,0,0,0,58.939,27H50.313A4.313,4.313,0,0,0,46,31.313v6.47A4.313,4.313,0,0,0,50.313,42.1ZM50.313,31.313h8.626v6.47H50.313Z" transform="translate(50.886 28.913)" fill="#ff743c"/>
      <path id="Path_74" data-name="Path 74" d="M39.252,40.313A4.313,4.313,0,0,0,34.939,36H26.313A4.313,4.313,0,0,0,22,40.313v6.47A4.313,4.313,0,0,0,26.313,51.1h8.626a4.313,4.313,0,0,0,4.313-4.313Zm-12.939,6.47v-6.47h8.626v6.47Z" transform="translate(23.13 39.321)" fill="#ff743c"/>
      <path id="Path_75" data-name="Path 75" d="M27.252,40.313A4.313,4.313,0,0,0,22.939,36H14.313A4.313,4.313,0,0,0,10,40.313v6.47A4.313,4.313,0,0,0,14.313,51.1h8.626a4.313,4.313,0,0,0,4.313-4.313Zm-12.939,6.47v-6.47h8.626v6.47Z" transform="translate(9.252 39.321)" fill="#ff743c"/>
      <path id="Path_76" data-name="Path 76" d="M34.939,45H26.313A4.313,4.313,0,0,0,22,49.313v6.47A4.313,4.313,0,0,0,26.313,60.1h8.626a4.313,4.313,0,0,0,4.313-4.313v-6.47A4.313,4.313,0,0,0,34.939,45ZM26.313,55.783v-6.47h8.626v6.47Z" transform="translate(23.13 49.73)" fill="#ff743c"/>
      <path id="Path_77" data-name="Path 77" d="M38.313,42.1h8.626a4.313,4.313,0,0,0,4.313-4.313v-6.47A4.313,4.313,0,0,0,46.939,27H38.313A4.313,4.313,0,0,0,34,31.313v6.47A4.313,4.313,0,0,0,38.313,42.1Zm0-10.783h8.626v6.47H38.313Z" transform="translate(37.008 28.913)" fill="#ff743c"/>
      <path id="Path_78" data-name="Path 78" d="M34,46.783A4.313,4.313,0,0,0,38.313,51.1a2.157,2.157,0,0,0,0-4.313v-6.47h8.626a2.157,2.157,0,1,0,0-4.313H38.313A4.313,4.313,0,0,0,34,40.313Z" transform="translate(37.008 39.321)" fill="#ff743c"/>
      <path id="Path_79" data-name="Path 79" d="M22.939,45H14.313A4.313,4.313,0,0,0,10,49.313v6.47A4.313,4.313,0,0,0,14.313,60.1h8.626a4.313,4.313,0,0,0,4.313-4.313v-6.47A4.313,4.313,0,0,0,22.939,45ZM14.313,55.783v-6.47h8.626v6.47Z" transform="translate(9.252 49.73)" fill="#ff743c"/>
      <path id="Path_80" data-name="Path 80" d="M64.035,36A28.035,28.035,0,1,0,92.069,64.035,28.035,28.035,0,0,0,64.035,36Zm0,51.756A23.722,23.722,0,1,1,87.756,64.035,23.722,23.722,0,0,1,64.035,87.756Z" transform="translate(39.321 39.321)" fill="#ff743c"/>
      <path id="Path_81" data-name="Path 81" d="M69.836,45.147,53.062,61.92l-7.623-7.625a2.156,2.156,0,1,0-3.05,3.05l9.148,9.15a2.157,2.157,0,0,0,3.049,0l18.3-18.3a2.156,2.156,0,1,0-3.05-3.05Z" transform="translate(45.98 49.169)" fill="#ff743c"/>
    </g>
  </g>
</svg>
