<svg xmlns="http://www.w3.org/2000/svg" width="396" height="553" viewBox="0 0 396 553">
  <g id="Group_50" data-name="Group 50" transform="translate(-261 -3208)">
    <rect id="Rectangle_78" data-name="Rectangle 78" width="396" height="553" rx="91" transform="translate(261 3208)" fill="#fff"/>
    <rect id="Rectangle_82" data-name="Rectangle 82" width="324" height="224" rx="55" transform="translate(297 3247)" fill="rgba(255,199,177,0.61)"/>
    <g id="devices" transform="translate(381.541 3282)">
      <g id="Group_32" data-name="Group 32">
        <g id="Group_31" data-name="Group 31">
          <path id="Path_68" data-name="Path 68" d="M143.4,0H52.83a7.547,7.547,0,0,0-7.547,7.547V62.893h-32.7A7.547,7.547,0,0,0,5.031,70.44v50.314H2.516A2.516,2.516,0,0,0,0,123.27a12.594,12.594,0,0,0,12.579,12.579h80.5A12.566,12.566,0,0,0,105.66,123.3v-.025a2.516,2.516,0,0,0-2.516-2.516h-2.516V93.082H128.3a2.516,2.516,0,0,0,0-5.031H115.1l-3.592-12.579H143.4a7.547,7.547,0,0,0,7.547-7.547V7.547A7.547,7.547,0,0,0,143.4,0ZM10.063,70.44a2.516,2.516,0,0,1,2.516-2.516h80.5A2.516,2.516,0,0,1,95.6,70.44v50.314H60.377a2.516,2.516,0,0,0-2.516,2.516H47.8a2.516,2.516,0,0,0-2.516-2.516H10.063ZM98.435,128.6a7.594,7.594,0,0,1-5.353,2.219h-80.5a7.562,7.562,0,0,1-7.117-5.031H42.767a2.516,2.516,0,0,0,2.516,2.516H60.377a2.516,2.516,0,0,0,2.516-2.516H100.2A7.651,7.651,0,0,1,98.435,128.6Zm2.194-40.548V75.472h5.65l3.592,12.579Zm45.283-20.126A2.516,2.516,0,0,1,143.4,70.44H100.629a7.547,7.547,0,0,0-7.547-7.547H50.314V7.547A2.516,2.516,0,0,1,52.83,5.031H143.4a2.516,2.516,0,0,1,2.516,2.516Z" fill="#ff743c"/>
        </g>
      </g>
      <g id="Group_34" data-name="Group 34" transform="translate(110.692 95.597)">
        <g id="Group_33" data-name="Group 33">
          <path id="Path_69" data-name="Path 69" d="M379.673,304H359.547A7.547,7.547,0,0,0,352,311.547V351.8a7.547,7.547,0,0,0,7.547,7.547h20.126a7.547,7.547,0,0,0,7.547-7.547V311.547A7.547,7.547,0,0,0,379.673,304Zm2.516,47.8a2.516,2.516,0,0,1-2.516,2.516H359.547a2.516,2.516,0,0,1-2.516-2.516V311.547a2.516,2.516,0,0,1,2.516-2.516h20.126a2.516,2.516,0,0,1,2.516,2.516Z" transform="translate(-352 -304)" fill="#ff743c"/>
        </g>
      </g>
    </g>
    <text id="Apprendre_Tout_appareil" data-name="Apprendre
Tout appareil" transform="translate(457 3562)" fill="#010101" font-size="43" font-family="QuicksandBold-Regular, Quicksand"><tspan x="-112.123" y="0">Apprendre</tspan><tspan x="-140.331" y="50">Tout Appareil</tspan></text>
  </g>
</svg>
