<svg xmlns="http://www.w3.org/2000/svg" width="70.272" height="70.272" viewBox="0 0 70.272 70.272">
  <path id="facebook" d="M51.223,73.272V46.061h9.135l1.368-10.6H51.221V28.685c0-3.071.853-5.165,5.261-5.165H62.1V14.033a75.16,75.16,0,0,0-8.187-.422c-8.1,0-13.635,4.945-13.635,14.019v7.824H31.109v10.6H40.27V73.272H6.879A3.878,3.878,0,0,1,3,69.393V6.879A3.878,3.878,0,0,1,6.879,3H69.393a3.878,3.878,0,0,1,3.879,3.879V69.393a3.878,3.878,0,0,1-3.879,3.879Z" transform="translate(-3 -3)" fill="#ff743c" fill-rule="evenodd"/>
</svg>
