<svg xmlns="http://www.w3.org/2000/svg" width="79.045" height="79.042" viewBox="0 0 79.045 79.042">
  <path id="instagram" d="M42.52,3c-10.734,0-12.077.047-16.293.237a29.085,29.085,0,0,0-9.593,1.839,19.367,19.367,0,0,0-7,4.558,19.373,19.373,0,0,0-4.558,7,29.139,29.139,0,0,0-1.839,9.593C3.045,30.443,3,31.786,3,42.52s.045,12.077.237,16.293a29.085,29.085,0,0,0,1.839,9.593,19.375,19.375,0,0,0,4.558,7,19.375,19.375,0,0,0,7,4.558,29.139,29.139,0,0,0,9.593,1.839c4.215.19,5.562.237,16.293.237S54.6,82,58.815,81.805a29.085,29.085,0,0,0,9.593-1.839A20.192,20.192,0,0,0,79.969,68.405a29.139,29.139,0,0,0,1.839-9.593c.19-4.215.237-5.562.237-16.293S82,30.443,81.808,26.227a29.085,29.085,0,0,0-1.839-9.593,19.373,19.373,0,0,0-4.558-7,19.367,19.367,0,0,0-7-4.558,29.139,29.139,0,0,0-9.593-1.839C54.6,3.047,53.253,3,42.52,3m0,7.121c10.552,0,11.8.04,15.966.229a21.956,21.956,0,0,1,7.343,1.359,13.083,13.083,0,0,1,7.5,7.5,21.932,21.932,0,0,1,1.359,7.338c.19,4.171.229,5.414.229,15.971s-.04,11.8-.229,15.966a22.1,22.1,0,0,1-1.359,7.343,13.083,13.083,0,0,1-7.5,7.5,21.932,21.932,0,0,1-7.338,1.359c-4.165.19-5.414.229-15.971.229s-11.806-.04-15.966-.229a22.1,22.1,0,0,1-7.343-1.359,12.243,12.243,0,0,1-4.545-2.956,12.243,12.243,0,0,1-2.956-4.545,21.8,21.8,0,0,1-1.359-7.338c-.19-4.171-.229-5.414-.229-15.971s.04-11.8.229-15.966a21.956,21.956,0,0,1,1.359-7.343,12.365,12.365,0,0,1,2.956-4.545,12.3,12.3,0,0,1,4.545-2.956,21.8,21.8,0,0,1,7.338-1.359c4.171-.19,5.414-.229,15.971-.229m0,45.572A13.173,13.173,0,1,1,55.693,42.521,13.171,13.171,0,0,1,42.52,55.693m0-33.466A20.293,20.293,0,1,0,62.813,42.521,20.293,20.293,0,0,0,42.52,22.228m25.838-.8a4.742,4.742,0,1,1-4.742-4.742,4.742,4.742,0,0,1,4.742,4.742" transform="translate(-3 -3)" fill="#ff743c" fill-rule="evenodd"/>
</svg>
