<svg xmlns="http://www.w3.org/2000/svg" width="79.04" height="64.272" viewBox="0 0 79.04 64.272">
  <path id="twitter" d="M27.829,70.273c29.824,0,46.143-24.737,46.143-46.146,0-.7,0-1.391-.032-2.087a33.039,33.039,0,0,0,8.1-8.42,32.87,32.87,0,0,1-9.327,2.566A16.316,16.316,0,0,0,79.858,7.2a32.261,32.261,0,0,1-10.315,3.926,16.216,16.216,0,0,0-28.049,11.1,17.919,17.919,0,0,0,.411,3.7A46.056,46.056,0,0,1,8.472,8.972,16.264,16.264,0,0,0,13.5,30.637a16.4,16.4,0,0,1-7.34-2.023v.221a16.256,16.256,0,0,0,13,15.911,15.813,15.813,0,0,1-4.268.569,16,16,0,0,1-3.043-.285A16.219,16.219,0,0,0,27,56.293,32.527,32.527,0,0,1,6.857,63.249,31.2,31.2,0,0,1,3,63.027,46.135,46.135,0,0,0,27.832,70.27" transform="translate(-3 -6)" fill="#ff743c"/>
</svg>
