<svg xmlns="http://www.w3.org/2000/svg" width="308.737" height="176.098" viewBox="0 0 308.737 176.098">
  <g id="Group_49" data-name="Group 49" transform="translate(-56.999 -1571.732)">
    <path id="Shape" d="M41.561,20.781A20.781,20.781,0,0,1,20.781,41.561h0A20.781,20.781,0,0,1,0,20.781H0A20.781,20.781,0,0,1,20.781,0H41.561Z" transform="translate(56.999 1706.269)" fill="#f8f8f8"/>
    <path id="Shape-2" data-name="Shape" d="M0,21.569A21.57,21.57,0,0,1,21.569,0h0A21.57,21.57,0,0,1,43.139,21.569h0A21.57,21.57,0,0,1,21.569,43.139H0Z" transform="translate(322.596 1571.732)" fill="#f8f8f8"/>
    <path id="Shape-3" data-name="Shape" d="M21.5,10.749A10.749,10.749,0,0,1,10.748,21.5h0A10.749,10.749,0,0,1,0,10.749H0A10.749,10.749,0,0,1,10.748,0H21.5Z" transform="translate(77.063 1705.652)" fill="#f2f2f2"/>
    <path id="Shape-4" data-name="Shape" d="M0,11.156A11.157,11.157,0,0,1,11.157,0h0A11.156,11.156,0,0,1,22.313,11.156h0A11.157,11.157,0,0,1,11.157,22.313H0Z" transform="translate(322.596 1593.198)" fill="#f2f2f2"/>
    <path id="Shape-5" data-name="Shape" d="M0,51.4a51.494,51.494,0,1,1,102.987,0V171.812A51.494,51.494,0,0,1,0,171.812Z" transform="translate(317.722 1603.039) rotate(90)" fill="none" stroke="rgba(223,223,223,0.23)" stroke-linecap="round" stroke-linejoin="round" stroke-miterlimit="10" stroke-width="25.24"/>
  </g>
</svg>
